<svg xmlns="http://www.w3.org/2000/svg" xmlns:xlink="http://www.w3.org/1999/xlink" width="2000" zoomAndPan="magnify" viewBox="0 0 1500 1499.999933" height="2000" preserveAspectRatio="xMidYMid meet" version="1.0"><defs><g/><clipPath id="b97144f09e"><rect x="0" width="704" y="0" height="85"/></clipPath><clipPath id="f645737484"><path d="M 605.558594 441.515625 L 894.308594 441.515625 L 894.308594 768.515625 L 605.558594 768.515625 Z M 605.558594 441.515625 " clip-rule="nonzero"/></clipPath></defs><g transform="matrix(1, 0, 0, 1, 397, 980)"><g clip-path="url(#b97144f09e)"><g fill="#ffffff" fill-opacity="1"><g transform="translate(3.341328, 63.684656)"><g><path d="M 17.609375 -44.25 C 23.328125 -44.25 27.5 -43.132812 30.125 -40.90625 C 32.757812 -38.675781 34.078125 -35.484375 34.078125 -31.328125 C 34.078125 -29.453125 33.769531 -27.671875 33.15625 -25.984375 C 32.539062 -24.296875 31.546875 -22.8125 30.171875 -21.53125 C 28.796875 -20.25 26.992188 -19.238281 24.765625 -18.5 C 22.535156 -17.769531 19.804688 -17.40625 16.578125 -17.40625 L 11.203125 -17.40625 L 11.203125 0 L 6.046875 0 L 6.046875 -44.25 Z M 17.125 -39.859375 L 11.203125 -39.859375 L 11.203125 -21.828125 L 16.015625 -21.828125 C 18.835938 -21.828125 21.191406 -22.128906 23.078125 -22.734375 C 24.960938 -23.335938 26.378906 -24.316406 27.328125 -25.671875 C 28.273438 -27.035156 28.75 -28.847656 28.75 -31.109375 C 28.75 -34.054688 27.8125 -36.25 25.9375 -37.6875 C 24.0625 -39.132812 21.125 -39.859375 17.125 -39.859375 Z M 17.125 -39.859375 "/></g></g></g><g fill="#ffffff" fill-opacity="1"><g transform="translate(40.619401, 63.684656)"><g><path d="M 33.890625 -16.640625 C 33.890625 -13.921875 33.535156 -11.488281 32.828125 -9.34375 C 32.128906 -7.207031 31.113281 -5.398438 29.78125 -3.921875 C 28.445312 -2.453125 26.835938 -1.328125 24.953125 -0.546875 C 23.066406 0.222656 20.929688 0.609375 18.546875 0.609375 C 16.328125 0.609375 14.296875 0.222656 12.453125 -0.546875 C 10.609375 -1.328125 9.015625 -2.453125 7.671875 -3.921875 C 6.328125 -5.398438 5.285156 -7.207031 4.546875 -9.34375 C 3.816406 -11.488281 3.453125 -13.921875 3.453125 -16.640625 C 3.453125 -20.273438 4.066406 -23.367188 5.296875 -25.921875 C 6.523438 -28.472656 8.285156 -30.421875 10.578125 -31.765625 C 12.867188 -33.109375 15.597656 -33.78125 18.765625 -33.78125 C 21.785156 -33.78125 24.429688 -33.101562 26.703125 -31.75 C 28.972656 -30.394531 30.738281 -28.441406 32 -25.890625 C 33.257812 -23.335938 33.890625 -20.253906 33.890625 -16.640625 Z M 8.65625 -16.640625 C 8.65625 -13.984375 9.007812 -11.675781 9.71875 -9.71875 C 10.425781 -7.757812 11.515625 -6.242188 12.984375 -5.171875 C 14.453125 -4.109375 16.347656 -3.578125 18.671875 -3.578125 C 20.972656 -3.578125 22.863281 -4.109375 24.34375 -5.171875 C 25.832031 -6.242188 26.925781 -7.757812 27.625 -9.71875 C 28.332031 -11.675781 28.6875 -13.984375 28.6875 -16.640625 C 28.6875 -19.285156 28.332031 -21.570312 27.625 -23.5 C 26.925781 -25.425781 25.835938 -26.914062 24.359375 -27.96875 C 22.890625 -29.019531 20.984375 -29.546875 18.640625 -29.546875 C 15.191406 -29.546875 12.664062 -28.40625 11.0625 -26.125 C 9.457031 -23.84375 8.65625 -20.679688 8.65625 -16.640625 Z M 8.65625 -16.640625 "/></g></g></g><g fill="#ffffff" fill-opacity="1"><g transform="translate(77.897474, 63.684656)"><g><path d="M 32.296875 -0.0625 L 26.390625 -19.375 C 26.128906 -20.195312 25.878906 -21.003906 25.640625 -21.796875 C 25.410156 -22.597656 25.203125 -23.367188 25.015625 -24.109375 C 24.828125 -24.847656 24.65625 -25.535156 24.5 -26.171875 C 24.34375 -26.804688 24.21875 -27.351562 24.125 -27.8125 L 23.90625 -27.8125 C 23.820312 -27.351562 23.707031 -26.804688 23.5625 -26.171875 C 23.425781 -25.535156 23.265625 -24.84375 23.078125 -24.09375 C 22.890625 -23.34375 22.679688 -22.554688 22.453125 -21.734375 C 22.234375 -20.921875 21.984375 -20.101562 21.703125 -19.28125 L 15.53125 -0.0625 L 9.859375 -0.0625 L 0.71875 -33.234375 L 5.9375 -33.234375 L 10.71875 -14.921875 C 11.039062 -13.710938 11.347656 -12.515625 11.640625 -11.328125 C 11.929688 -10.148438 12.179688 -9.039062 12.390625 -8 C 12.609375 -6.96875 12.765625 -6.066406 12.859375 -5.296875 L 13.109375 -5.296875 C 13.222656 -5.796875 13.351562 -6.398438 13.5 -7.109375 C 13.65625 -7.816406 13.828125 -8.566406 14.015625 -9.359375 C 14.210938 -10.160156 14.421875 -10.957031 14.640625 -11.75 C 14.867188 -12.550781 15.09375 -13.304688 15.3125 -14.015625 L 21.421875 -33.234375 L 26.84375 -33.234375 L 32.75 -14.046875 C 33.050781 -13.078125 33.347656 -12.066406 33.640625 -11.015625 C 33.929688 -9.960938 34.195312 -8.945312 34.4375 -7.96875 C 34.6875 -6.988281 34.859375 -6.117188 34.953125 -5.359375 L 35.203125 -5.359375 C 35.273438 -6.046875 35.421875 -6.890625 35.640625 -7.890625 C 35.867188 -8.898438 36.128906 -10.007812 36.421875 -11.21875 C 36.710938 -12.4375 37.019531 -13.671875 37.34375 -14.921875 L 42.1875 -33.234375 L 47.3125 -33.234375 L 38.140625 -0.0625 Z M 32.296875 -0.0625 "/></g></g></g><g fill="#ffffff" fill-opacity="1"><g transform="translate(125.917199, 63.684656)"><g><path d="M 18.0625 -33.78125 C 20.894531 -33.78125 23.316406 -33.15625 25.328125 -31.90625 C 27.347656 -30.65625 28.890625 -28.90625 29.953125 -26.65625 C 31.023438 -24.40625 31.5625 -21.773438 31.5625 -18.765625 L 31.5625 -15.640625 L 8.65625 -15.640625 C 8.71875 -11.753906 9.6875 -8.789062 11.5625 -6.75 C 13.4375 -4.707031 16.078125 -3.6875 19.484375 -3.6875 C 21.585938 -3.6875 23.445312 -3.878906 25.0625 -4.265625 C 26.675781 -4.648438 28.347656 -5.21875 30.078125 -5.96875 L 30.078125 -1.546875 C 28.410156 -0.796875 26.753906 -0.246094 25.109375 0.09375 C 23.460938 0.4375 21.519531 0.609375 19.28125 0.609375 C 16.09375 0.609375 13.3125 -0.0390625 10.9375 -1.34375 C 8.570312 -2.644531 6.734375 -4.554688 5.421875 -7.078125 C 4.109375 -9.597656 3.453125 -12.6875 3.453125 -16.34375 C 3.453125 -19.914062 4.050781 -23.007812 5.25 -25.625 C 6.445312 -28.238281 8.140625 -30.25 10.328125 -31.65625 C 12.523438 -33.070312 15.101562 -33.78125 18.0625 -33.78125 Z M 18.015625 -29.65625 C 15.328125 -29.65625 13.1875 -28.773438 11.59375 -27.015625 C 10 -25.265625 9.050781 -22.816406 8.75 -19.671875 L 26.296875 -19.671875 C 26.273438 -21.648438 25.96875 -23.390625 25.375 -24.890625 C 24.78125 -26.390625 23.878906 -27.554688 22.671875 -28.390625 C 21.460938 -29.234375 19.910156 -29.65625 18.015625 -29.65625 Z M 18.015625 -29.65625 "/></g></g></g><g fill="#ffffff" fill-opacity="1"><g transform="translate(160.714102, 63.684656)"><g><path d="M 20.375 -33.78125 C 21.039062 -33.78125 21.734375 -33.742188 22.453125 -33.671875 C 23.179688 -33.597656 23.828125 -33.503906 24.390625 -33.390625 L 23.765625 -28.71875 C 23.210938 -28.863281 22.601562 -28.972656 21.9375 -29.046875 C 21.269531 -29.128906 20.644531 -29.171875 20.0625 -29.171875 C 18.726562 -29.171875 17.472656 -28.90625 16.296875 -28.375 C 15.117188 -27.84375 14.082031 -27.078125 13.1875 -26.078125 C 12.300781 -25.078125 11.601562 -23.875 11.09375 -22.46875 C 10.59375 -21.070312 10.34375 -19.515625 10.34375 -17.796875 L 10.34375 0 L 5.296875 0 L 5.296875 -33.171875 L 9.46875 -33.171875 L 10.015625 -27.0625 L 10.234375 -27.0625 C 10.921875 -28.289062 11.75 -29.410156 12.71875 -30.421875 C 13.6875 -31.441406 14.8125 -32.253906 16.09375 -32.859375 C 17.375 -33.472656 18.800781 -33.78125 20.375 -33.78125 Z M 20.375 -33.78125 "/></g></g></g><g fill="#ffffff" fill-opacity="1"><g transform="translate(186.040195, 63.684656)"><g><path d="M 17.09375 0.609375 C 12.90625 0.609375 9.582031 -0.820312 7.125 -3.6875 C 4.675781 -6.550781 3.453125 -10.8125 3.453125 -16.46875 C 3.453125 -22.175781 4.703125 -26.488281 7.203125 -29.40625 C 9.703125 -32.320312 13.03125 -33.78125 17.1875 -33.78125 C 18.945312 -33.78125 20.484375 -33.546875 21.796875 -33.078125 C 23.109375 -32.617188 24.238281 -32 25.1875 -31.21875 C 26.132812 -30.4375 26.929688 -29.554688 27.578125 -28.578125 L 27.9375 -28.578125 C 27.851562 -29.203125 27.769531 -30.054688 27.6875 -31.140625 C 27.613281 -32.234375 27.578125 -33.125 27.578125 -33.8125 L 27.578125 -47.09375 L 32.59375 -47.09375 L 32.59375 0 L 28.546875 0 L 27.78125 -4.71875 L 27.578125 -4.71875 C 26.953125 -3.726562 26.160156 -2.828125 25.203125 -2.015625 C 24.242188 -1.210938 23.101562 -0.570312 21.78125 -0.09375 C 20.457031 0.375 18.894531 0.609375 17.09375 0.609375 Z M 17.890625 -3.578125 C 21.441406 -3.578125 23.953125 -4.582031 25.421875 -6.59375 C 26.890625 -8.613281 27.625 -11.613281 27.625 -15.59375 L 27.625 -16.5 C 27.625 -20.71875 26.921875 -23.953125 25.515625 -26.203125 C 24.117188 -28.460938 21.578125 -29.59375 17.890625 -29.59375 C 14.796875 -29.59375 12.484375 -28.40625 10.953125 -26.03125 C 9.421875 -23.664062 8.65625 -20.4375 8.65625 -16.34375 C 8.65625 -12.269531 9.414062 -9.125 10.9375 -6.90625 C 12.457031 -4.6875 14.773438 -3.578125 17.890625 -3.578125 Z M 17.890625 -3.578125 "/></g></g></g><g fill="#ffffff" fill-opacity="1"><g transform="translate(223.95369, 63.684656)"><g/></g></g><g fill="#ffffff" fill-opacity="1"><g transform="translate(240.051039, 63.684656)"><g><path d="M 10.328125 -47.09375 L 10.328125 -35.3125 C 10.328125 -33.96875 10.289062 -32.660156 10.21875 -31.390625 C 10.144531 -30.117188 10.085938 -29.128906 10.046875 -28.421875 L 10.328125 -28.421875 C 11.234375 -29.910156 12.539062 -31.171875 14.25 -32.203125 C 15.96875 -33.234375 18.160156 -33.75 20.828125 -33.75 C 24.984375 -33.75 28.296875 -32.3125 30.765625 -29.4375 C 33.234375 -26.5625 34.46875 -22.285156 34.46875 -16.609375 C 34.46875 -12.878906 33.898438 -9.734375 32.765625 -7.171875 C 31.640625 -4.609375 30.046875 -2.671875 27.984375 -1.359375 C 25.929688 -0.046875 23.503906 0.609375 20.703125 0.609375 C 18.078125 0.609375 15.921875 0.117188 14.234375 -0.859375 C 12.554688 -1.835938 11.257812 -3.035156 10.34375 -4.453125 L 9.953125 -4.453125 L 8.921875 0 L 5.296875 0 L 5.296875 -47.09375 Z M 20 -29.546875 C 17.601562 -29.546875 15.695312 -29.070312 14.28125 -28.125 C 12.875 -27.1875 11.863281 -25.773438 11.25 -23.890625 C 10.632812 -22.003906 10.328125 -19.617188 10.328125 -16.734375 L 10.328125 -16.46875 C 10.328125 -12.289062 11.019531 -9.097656 12.40625 -6.890625 C 13.800781 -4.679688 16.332031 -3.578125 20 -3.578125 C 23.09375 -3.578125 25.410156 -4.703125 26.953125 -6.953125 C 28.492188 -9.210938 29.265625 -12.441406 29.265625 -16.640625 C 29.265625 -20.921875 28.503906 -24.140625 26.984375 -26.296875 C 25.460938 -28.460938 23.132812 -29.546875 20 -29.546875 Z M 20 -29.546875 "/></g></g></g><g fill="#ffffff" fill-opacity="1"><g transform="translate(277.964534, 63.684656)"><g><path d="M 0.0625 -33.171875 L 5.453125 -33.171875 L 12.765625 -13.921875 C 13.191406 -12.796875 13.585938 -11.710938 13.953125 -10.671875 C 14.316406 -9.628906 14.640625 -8.632812 14.921875 -7.6875 C 15.203125 -6.738281 15.425781 -5.820312 15.59375 -4.9375 L 15.796875 -4.9375 C 16.078125 -5.945312 16.476562 -7.269531 17 -8.90625 C 17.53125 -10.550781 18.097656 -12.234375 18.703125 -13.953125 L 25.640625 -33.171875 L 31.046875 -33.171875 L 16.609375 4.875 C 15.847656 6.90625 14.957031 8.675781 13.9375 10.1875 C 12.914062 11.707031 11.675781 12.875 10.21875 13.6875 C 8.769531 14.507812 7.019531 14.921875 4.96875 14.921875 C 4.019531 14.921875 3.179688 14.863281 2.453125 14.75 C 1.722656 14.644531 1.097656 14.519531 0.578125 14.375 L 0.578125 10.34375 C 1.015625 10.445312 1.550781 10.539062 2.1875 10.625 C 2.820312 10.707031 3.484375 10.75 4.171875 10.75 C 5.421875 10.75 6.503906 10.507812 7.421875 10.03125 C 8.347656 9.5625 9.144531 8.867188 9.8125 7.953125 C 10.476562 7.046875 11.050781 5.96875 11.53125 4.71875 L 13.34375 0.0625 Z M 0.0625 -33.171875 "/></g></g></g><g fill="#ffffff" fill-opacity="1"><g transform="translate(309.009422, 63.684656)"><g/></g></g><g fill="#ffffff" fill-opacity="1"><g transform="translate(325.106772, 63.684656)"><g><path d="M 6.046875 0 L 6.046875 -44.25 L 11.203125 -44.25 L 11.203125 -4.59375 L 30.84375 -4.59375 L 30.84375 0 Z M 6.046875 0 "/></g></g></g><g fill="#ffffff" fill-opacity="1"><g transform="translate(357.452762, 63.684656)"><g><path d="M 32.6875 -33.171875 L 32.6875 0 L 28.578125 0 L 27.84375 -4.65625 L 27.578125 -4.65625 C 26.890625 -3.507812 26 -2.539062 24.90625 -1.75 C 23.820312 -0.96875 22.597656 -0.378906 21.234375 0.015625 C 19.867188 0.410156 18.421875 0.609375 16.890625 0.609375 C 14.265625 0.609375 12.0625 0.183594 10.28125 -0.65625 C 8.507812 -1.507812 7.175781 -2.820312 6.28125 -4.59375 C 5.382812 -6.375 4.9375 -8.65625 4.9375 -11.4375 L 4.9375 -33.171875 L 10.015625 -33.171875 L 10.015625 -11.796875 C 10.015625 -9.035156 10.640625 -6.972656 11.890625 -5.609375 C 13.140625 -4.253906 15.046875 -3.578125 17.609375 -3.578125 C 20.078125 -3.578125 22.039062 -4.039062 23.5 -4.96875 C 24.96875 -5.894531 26.019531 -7.257812 26.65625 -9.0625 C 27.300781 -10.863281 27.625 -13.078125 27.625 -15.703125 L 27.625 -33.171875 Z M 32.6875 -33.171875 "/></g></g></g><g fill="#ffffff" fill-opacity="1"><g transform="translate(395.457032, 63.684656)"><g><path d="M 41.3125 -33.78125 C 44.96875 -33.78125 47.722656 -32.828125 49.578125 -30.921875 C 51.429688 -29.015625 52.359375 -25.953125 52.359375 -21.734375 L 52.359375 0 L 47.390625 0 L 47.390625 -21.484375 C 47.390625 -24.171875 46.8125 -26.1875 45.65625 -27.53125 C 44.5 -28.875 42.78125 -29.546875 40.5 -29.546875 C 37.289062 -29.546875 34.957031 -28.613281 33.5 -26.75 C 32.050781 -24.894531 31.328125 -22.160156 31.328125 -18.546875 L 31.328125 0 L 26.328125 0 L 26.328125 -21.484375 C 26.328125 -23.285156 26.066406 -24.78125 25.546875 -25.96875 C 25.035156 -27.15625 24.269531 -28.046875 23.25 -28.640625 C 22.238281 -29.242188 20.957031 -29.546875 19.40625 -29.546875 C 17.195312 -29.546875 15.425781 -29.085938 14.09375 -28.171875 C 12.769531 -27.265625 11.8125 -25.914062 11.21875 -24.125 C 10.625 -22.34375 10.328125 -20.148438 10.328125 -17.546875 L 10.328125 0 L 5.296875 0 L 5.296875 -33.171875 L 9.359375 -33.171875 L 10.109375 -28.484375 L 10.375 -28.484375 C 11.039062 -29.628906 11.878906 -30.59375 12.890625 -31.375 C 13.898438 -32.164062 15.03125 -32.765625 16.28125 -33.171875 C 17.53125 -33.578125 18.863281 -33.78125 20.28125 -33.78125 C 22.800781 -33.78125 24.910156 -33.3125 26.609375 -32.375 C 28.316406 -31.4375 29.554688 -30.007812 30.328125 -28.09375 L 30.59375 -28.09375 C 31.6875 -30.007812 33.179688 -31.4375 35.078125 -32.375 C 36.972656 -33.3125 39.050781 -33.78125 41.3125 -33.78125 Z M 41.3125 -33.78125 "/></g></g></g><g fill="#ffffff" fill-opacity="1"><g transform="translate(452.826534, 63.684656)"><g><path d="M 33.890625 -16.640625 C 33.890625 -13.921875 33.535156 -11.488281 32.828125 -9.34375 C 32.128906 -7.207031 31.113281 -5.398438 29.78125 -3.921875 C 28.445312 -2.453125 26.835938 -1.328125 24.953125 -0.546875 C 23.066406 0.222656 20.929688 0.609375 18.546875 0.609375 C 16.328125 0.609375 14.296875 0.222656 12.453125 -0.546875 C 10.609375 -1.328125 9.015625 -2.453125 7.671875 -3.921875 C 6.328125 -5.398438 5.285156 -7.207031 4.546875 -9.34375 C 3.816406 -11.488281 3.453125 -13.921875 3.453125 -16.640625 C 3.453125 -20.273438 4.066406 -23.367188 5.296875 -25.921875 C 6.523438 -28.472656 8.285156 -30.421875 10.578125 -31.765625 C 12.867188 -33.109375 15.597656 -33.78125 18.765625 -33.78125 C 21.785156 -33.78125 24.429688 -33.101562 26.703125 -31.75 C 28.972656 -30.394531 30.738281 -28.441406 32 -25.890625 C 33.257812 -23.335938 33.890625 -20.253906 33.890625 -16.640625 Z M 8.65625 -16.640625 C 8.65625 -13.984375 9.007812 -11.675781 9.71875 -9.71875 C 10.425781 -7.757812 11.515625 -6.242188 12.984375 -5.171875 C 14.453125 -4.109375 16.347656 -3.578125 18.671875 -3.578125 C 20.972656 -3.578125 22.863281 -4.109375 24.34375 -5.171875 C 25.832031 -6.242188 26.925781 -7.757812 27.625 -9.71875 C 28.332031 -11.675781 28.6875 -13.984375 28.6875 -16.640625 C 28.6875 -19.285156 28.332031 -21.570312 27.625 -23.5 C 26.925781 -25.425781 25.835938 -26.914062 24.359375 -27.96875 C 22.890625 -29.019531 20.984375 -29.546875 18.640625 -29.546875 C 15.191406 -29.546875 12.664062 -28.40625 11.0625 -26.125 C 9.457031 -23.84375 8.65625 -20.679688 8.65625 -16.640625 Z M 8.65625 -16.640625 "/></g></g></g><g fill="#ffffff" fill-opacity="1"><g transform="translate(490.104607, 63.684656)"><g><path d="M 20.375 -33.78125 C 21.039062 -33.78125 21.734375 -33.742188 22.453125 -33.671875 C 23.179688 -33.597656 23.828125 -33.503906 24.390625 -33.390625 L 23.765625 -28.71875 C 23.210938 -28.863281 22.601562 -28.972656 21.9375 -29.046875 C 21.269531 -29.128906 20.644531 -29.171875 20.0625 -29.171875 C 18.726562 -29.171875 17.472656 -28.90625 16.296875 -28.375 C 15.117188 -27.84375 14.082031 -27.078125 13.1875 -26.078125 C 12.300781 -25.078125 11.601562 -23.875 11.09375 -22.46875 C 10.59375 -21.070312 10.34375 -19.515625 10.34375 -17.796875 L 10.34375 0 L 5.296875 0 L 5.296875 -33.171875 L 9.46875 -33.171875 L 10.015625 -27.0625 L 10.234375 -27.0625 C 10.921875 -28.289062 11.75 -29.410156 12.71875 -30.421875 C 13.6875 -31.441406 14.8125 -32.253906 16.09375 -32.859375 C 17.375 -33.472656 18.800781 -33.78125 20.375 -33.78125 Z M 20.375 -33.78125 "/></g></g></g><g fill="#ffffff" fill-opacity="1"><g transform="translate(515.4307, 63.684656)"><g><path d="M 17.703125 -33.71875 C 21.660156 -33.71875 24.597656 -32.828125 26.515625 -31.046875 C 28.429688 -29.273438 29.390625 -26.441406 29.390625 -22.546875 L 29.390625 0 L 25.71875 0 L 24.75 -4.90625 L 24.515625 -4.90625 C 23.585938 -3.695312 22.617188 -2.679688 21.609375 -1.859375 C 20.597656 -1.046875 19.429688 -0.429688 18.109375 -0.015625 C 16.785156 0.398438 15.164062 0.609375 13.25 0.609375 C 11.238281 0.609375 9.445312 0.253906 7.875 -0.453125 C 6.3125 -1.160156 5.082031 -2.226562 4.1875 -3.65625 C 3.289062 -5.09375 2.84375 -6.910156 2.84375 -9.109375 C 2.84375 -12.421875 4.15625 -14.960938 6.78125 -16.734375 C 9.40625 -18.515625 13.398438 -19.484375 18.765625 -19.640625 L 24.484375 -19.890625 L 24.484375 -21.90625 C 24.484375 -24.769531 23.867188 -26.773438 22.640625 -27.921875 C 21.410156 -29.078125 19.675781 -29.65625 17.4375 -29.65625 C 15.695312 -29.65625 14.039062 -29.398438 12.46875 -28.890625 C 10.894531 -28.390625 9.398438 -27.800781 7.984375 -27.125 L 6.453125 -30.9375 C 7.941406 -31.695312 9.65625 -32.347656 11.59375 -32.890625 C 13.53125 -33.441406 15.566406 -33.71875 17.703125 -33.71875 Z M 24.421875 -16.34375 L 19.375 -16.125 C 15.238281 -15.96875 12.320312 -15.289062 10.625 -14.09375 C 8.925781 -12.90625 8.078125 -11.222656 8.078125 -9.046875 C 8.078125 -7.148438 8.648438 -5.75 9.796875 -4.84375 C 10.953125 -3.9375 12.476562 -3.484375 14.375 -3.484375 C 17.320312 -3.484375 19.734375 -4.300781 21.609375 -5.9375 C 23.484375 -7.570312 24.421875 -10.019531 24.421875 -13.28125 Z M 24.421875 -16.34375 "/></g></g></g><g fill="#ffffff" fill-opacity="1"><g transform="translate(549.864505, 63.684656)"><g/></g></g><g fill="#ffffff" fill-opacity="1"><g transform="translate(565.961854, 63.684656)"><g><path d="M 19.640625 0 L 14.46875 0 L 14.46875 -39.703125 L 0.546875 -39.703125 L 0.546875 -44.25 L 33.5 -44.25 L 33.5 -39.703125 L 19.640625 -39.703125 Z M 19.640625 0 "/></g></g></g><g fill="#ffffff" fill-opacity="1"><g transform="translate(600.093077, 63.684656)"><g><path d="M 18.0625 -33.78125 C 20.894531 -33.78125 23.316406 -33.15625 25.328125 -31.90625 C 27.347656 -30.65625 28.890625 -28.90625 29.953125 -26.65625 C 31.023438 -24.40625 31.5625 -21.773438 31.5625 -18.765625 L 31.5625 -15.640625 L 8.65625 -15.640625 C 8.71875 -11.753906 9.6875 -8.789062 11.5625 -6.75 C 13.4375 -4.707031 16.078125 -3.6875 19.484375 -3.6875 C 21.585938 -3.6875 23.445312 -3.878906 25.0625 -4.265625 C 26.675781 -4.648438 28.347656 -5.21875 30.078125 -5.96875 L 30.078125 -1.546875 C 28.410156 -0.796875 26.753906 -0.246094 25.109375 0.09375 C 23.460938 0.4375 21.519531 0.609375 19.28125 0.609375 C 16.09375 0.609375 13.3125 -0.0390625 10.9375 -1.34375 C 8.570312 -2.644531 6.734375 -4.554688 5.421875 -7.078125 C 4.109375 -9.597656 3.453125 -12.6875 3.453125 -16.34375 C 3.453125 -19.914062 4.050781 -23.007812 5.25 -25.625 C 6.445312 -28.238281 8.140625 -30.25 10.328125 -31.65625 C 12.523438 -33.070312 15.101562 -33.78125 18.0625 -33.78125 Z M 18.015625 -29.65625 C 15.328125 -29.65625 13.1875 -28.773438 11.59375 -27.015625 C 10 -25.265625 9.050781 -22.816406 8.75 -19.671875 L 26.296875 -19.671875 C 26.273438 -21.648438 25.96875 -23.390625 25.375 -24.890625 C 24.78125 -26.390625 23.878906 -27.554688 22.671875 -28.390625 C 21.460938 -29.234375 19.910156 -29.65625 18.015625 -29.65625 Z M 18.015625 -29.65625 "/></g></g></g><g fill="#ffffff" fill-opacity="1"><g transform="translate(634.889979, 63.684656)"><g><path d="M 18.578125 0.609375 C 15.597656 0.609375 12.96875 -0.00390625 10.6875 -1.234375 C 8.40625 -2.472656 6.628906 -4.351562 5.359375 -6.875 C 4.085938 -9.394531 3.453125 -12.570312 3.453125 -16.40625 C 3.453125 -20.414062 4.117188 -23.695312 5.453125 -26.25 C 6.796875 -28.800781 8.648438 -30.691406 11.015625 -31.921875 C 13.378906 -33.160156 16.0625 -33.78125 19.0625 -33.78125 C 20.71875 -33.78125 22.316406 -33.613281 23.859375 -33.28125 C 25.410156 -32.945312 26.675781 -32.523438 27.65625 -32.015625 L 26.15625 -27.8125 C 25.144531 -28.21875 23.976562 -28.582031 22.65625 -28.90625 C 21.332031 -29.226562 20.097656 -29.390625 18.953125 -29.390625 C 16.648438 -29.390625 14.734375 -28.894531 13.203125 -27.90625 C 11.679688 -26.914062 10.539062 -25.460938 9.78125 -23.546875 C 9.03125 -21.628906 8.65625 -19.269531 8.65625 -16.46875 C 8.65625 -13.78125 9.019531 -11.488281 9.75 -9.59375 C 10.488281 -7.695312 11.585938 -6.25 13.046875 -5.25 C 14.515625 -4.25 16.347656 -3.75 18.546875 -3.75 C 20.304688 -3.75 21.890625 -3.9375 23.296875 -4.3125 C 24.710938 -4.6875 25.992188 -5.125 27.140625 -5.625 L 27.140625 -1.15625 C 26.035156 -0.582031 24.800781 -0.144531 23.4375 0.15625 C 22.070312 0.457031 20.453125 0.609375 18.578125 0.609375 Z M 18.578125 0.609375 "/></g></g></g><g fill="#ffffff" fill-opacity="1"><g transform="translate(664.57325, 63.684656)"><g><path d="M 10.328125 -47.09375 L 10.328125 -33.015625 C 10.328125 -32.210938 10.304688 -31.398438 10.265625 -30.578125 C 10.222656 -29.765625 10.148438 -29.015625 10.046875 -28.328125 L 10.375 -28.328125 C 11.0625 -29.492188 11.9375 -30.472656 13 -31.265625 C 14.0625 -32.066406 15.265625 -32.675781 16.609375 -33.09375 C 17.960938 -33.507812 19.394531 -33.71875 20.90625 -33.71875 C 23.570312 -33.71875 25.796875 -33.289062 27.578125 -32.4375 C 29.367188 -31.59375 30.710938 -30.28125 31.609375 -28.5 C 32.503906 -26.726562 32.953125 -24.429688 32.953125 -21.609375 L 32.953125 0 L 28 0 L 28 -21.28125 C 28 -24.039062 27.367188 -26.109375 26.109375 -27.484375 C 24.847656 -28.859375 22.914062 -29.546875 20.3125 -29.546875 C 17.84375 -29.546875 15.878906 -29.070312 14.421875 -28.125 C 12.960938 -27.1875 11.914062 -25.8125 11.28125 -24 C 10.644531 -22.1875 10.328125 -19.96875 10.328125 -17.34375 L 10.328125 0 L 5.296875 0 L 5.296875 -47.09375 Z M 10.328125 -47.09375 "/></g></g></g></g></g><g clip-path="url(#f645737484)"><path fill="#0fa0f3" d="M 750.488281 441.675781 C 790.441406 441.675781 825.824219 457.683594 852.070312 483.949219 C 878.3125 509.101562 894.308594 545.625 894.308594 585.609375 C 894.308594 625.597656 878.3125 661.007812 852.070312 687.273438 C 825.824219 713.539062 790.441406 729.546875 750.488281 729.546875 C 710.535156 729.546875 674.039062 713.539062 647.796875 687.273438 C 622.660156 661.007812 605.558594 625.597656 605.558594 585.609375 C 605.558594 570.78125 607.84375 557.058594 612.410156 543.339844 L 629.515625 543.339844 C 624.945312 555.882812 621.550781 570.78125 621.550781 585.609375 C 621.550781 621.023438 636.371094 652.972656 659.21875 677.015625 C 683.179688 699.882812 715.167969 713.539062 750.550781 713.539062 C 785.9375 713.539062 817.859375 699.820312 840.710938 677.015625 C 864.667969 653.039062 878.378906 621.023438 878.378906 585.609375 C 878.378906 550.199219 864.667969 518.25 840.710938 494.207031 C 817.859375 471.335938 785.9375 456.507812 750.550781 456.507812 C 715.167969 456.507812 683.179688 471.402344 659.21875 494.207031 C 654.652344 499.890625 650.082031 505.640625 645.511719 511.324219 L 626.121094 511.324219 C 632.976562 501.066406 639.832031 491.917969 647.796875 483.882812 C 674.039062 457.683594 710.535156 441.675781 750.488281 441.675781 Z M 774.445312 658.722656 C 781.300781 658.722656 786.980469 664.40625 786.980469 671.265625 C 786.980469 678.128906 781.300781 683.8125 774.445312 683.8125 C 767.589844 683.8125 761.910156 678.128906 761.910156 671.265625 C 761.910156 664.40625 767.65625 658.722656 774.445312 658.722656 Z M 726.527344 658.722656 C 733.382812 658.722656 739.0625 664.40625 739.0625 671.265625 C 739.0625 678.128906 733.382812 683.8125 726.527344 683.8125 C 719.671875 683.8125 713.992188 678.128906 713.992188 671.265625 C 713.992188 664.40625 719.671875 658.722656 726.527344 658.722656 Z M 606.667969 519.359375 L 650.015625 519.359375 L 701.394531 635.855469 L 809.828125 635.855469 L 809.828125 651.863281 L 691.144531 651.863281 L 639.765625 535.367188 L 606.667969 535.367188 Z M 679.71875 561.632812 L 841.820312 561.632812 L 847.5 549.089844 L 849.785156 545.691406 L 672.863281 545.691406 Z M 686.574219 577.574219 L 834.964844 577.574219 L 828.109375 593.582031 L 693.429688 593.582031 Z M 700.285156 608.414062 L 821.253906 608.414062 L 821.253906 610.636719 L 814.398438 624.355469 L 707.140625 624.355469 Z M 658.046875 752.347656 L 842.929688 752.347656 L 842.929688 768.355469 L 658.046875 768.355469 Z M 658.046875 752.347656 " fill-opacity="1" fill-rule="nonzero"/></g><g fill="#ffffff" fill-opacity="1"><g transform="translate(503.994984, 919.268637)"><g><path d="M 38.203125 0.84375 C 31.992188 0.84375 26.429688 -0.160156 21.515625 -2.171875 C 16.597656 -4.191406 12.664062 -7.175781 9.71875 -11.125 C 6.78125 -15.070312 5.234375 -19.828125 5.078125 -25.390625 L 27.078125 -25.390625 C 27.398438 -22.242188 28.488281 -19.84375 30.34375 -18.1875 C 32.195312 -16.539062 34.617188 -15.71875 37.609375 -15.71875 C 40.671875 -15.71875 43.085938 -16.421875 44.859375 -17.828125 C 46.628906 -19.242188 47.515625 -21.203125 47.515625 -23.703125 C 47.515625 -25.796875 46.804688 -27.523438 45.390625 -28.890625 C 43.984375 -30.265625 42.253906 -31.394531 40.203125 -32.28125 C 38.148438 -33.164062 35.226562 -34.171875 31.4375 -35.296875 C 25.957031 -36.992188 21.484375 -38.6875 18.015625 -40.375 C 14.546875 -42.070312 11.5625 -44.570312 9.0625 -47.875 C 6.5625 -51.1875 5.3125 -55.5 5.3125 -60.8125 C 5.3125 -68.71875 8.171875 -74.90625 13.890625 -79.375 C 19.617188 -83.84375 27.078125 -86.078125 36.265625 -86.078125 C 45.617188 -86.078125 53.15625 -83.84375 58.875 -79.375 C 64.601562 -74.90625 67.664062 -68.675781 68.0625 -60.6875 L 45.703125 -60.6875 C 45.535156 -63.4375 44.523438 -65.59375 42.671875 -67.15625 C 40.828125 -68.726562 38.453125 -69.515625 35.546875 -69.515625 C 33.046875 -69.515625 31.03125 -68.847656 29.5 -67.515625 C 27.96875 -66.191406 27.203125 -64.28125 27.203125 -61.78125 C 27.203125 -59.039062 28.488281 -56.90625 31.0625 -55.375 C 33.644531 -53.84375 37.675781 -52.191406 43.15625 -50.421875 C 48.644531 -48.566406 53.097656 -46.789062 56.515625 -45.09375 C 59.941406 -43.40625 62.90625 -40.945312 65.40625 -37.71875 C 67.90625 -34.5 69.15625 -30.347656 69.15625 -25.265625 C 69.15625 -20.429688 67.925781 -16.039062 65.46875 -12.09375 C 63.007812 -8.144531 59.441406 -5 54.765625 -2.65625 C 50.097656 -0.320312 44.578125 0.84375 38.203125 0.84375 Z M 38.203125 0.84375 "/></g></g></g><g fill="#ffffff" fill-opacity="1"><g transform="translate(590.562184, 919.268637)"><g><path d="M 45.09375 -17.53125 L 45.09375 0 L 34.578125 0 C 27.078125 0 21.234375 -1.832031 17.046875 -5.5 C 12.859375 -9.164062 10.765625 -15.148438 10.765625 -23.453125 L 10.765625 -50.296875 L 2.53125 -50.296875 L 2.53125 -67.46875 L 10.765625 -67.46875 L 10.765625 -83.90625 L 31.4375 -83.90625 L 31.4375 -67.46875 L 44.984375 -67.46875 L 44.984375 -50.296875 L 31.4375 -50.296875 L 31.4375 -23.21875 C 31.4375 -21.195312 31.921875 -19.742188 32.890625 -18.859375 C 33.859375 -17.972656 35.46875 -17.53125 37.71875 -17.53125 Z M 45.09375 -17.53125 "/></g></g></g><g fill="#ffffff" fill-opacity="1"><g transform="translate(651.860785, 919.268637)"><g><path d="M 38.203125 0.96875 C 31.597656 0.96875 25.65625 -0.441406 20.375 -3.265625 C 15.09375 -6.085938 10.941406 -10.117188 7.921875 -15.359375 C 4.898438 -20.597656 3.390625 -26.722656 3.390625 -33.734375 C 3.390625 -40.660156 4.921875 -46.765625 7.984375 -52.046875 C 11.046875 -57.328125 15.234375 -61.378906 20.546875 -64.203125 C 25.867188 -67.023438 31.835938 -68.4375 38.453125 -68.4375 C 45.054688 -68.4375 51.019531 -67.023438 56.34375 -64.203125 C 61.664062 -61.378906 65.859375 -57.328125 68.921875 -52.046875 C 71.984375 -46.765625 73.515625 -40.660156 73.515625 -33.734375 C 73.515625 -26.796875 71.960938 -20.6875 68.859375 -15.40625 C 65.753906 -10.132812 61.519531 -6.085938 56.15625 -3.265625 C 50.800781 -0.441406 44.816406 0.96875 38.203125 0.96875 Z M 38.203125 -16.921875 C 42.148438 -16.921875 45.515625 -18.367188 48.296875 -21.265625 C 51.078125 -24.171875 52.46875 -28.328125 52.46875 -33.734375 C 52.46875 -39.128906 51.117188 -43.273438 48.421875 -46.171875 C 45.722656 -49.078125 42.398438 -50.53125 38.453125 -50.53125 C 34.421875 -50.53125 31.070312 -49.097656 28.40625 -46.234375 C 25.75 -43.378906 24.421875 -39.210938 24.421875 -33.734375 C 24.421875 -28.328125 25.726562 -24.171875 28.34375 -21.265625 C 30.96875 -18.367188 34.253906 -16.921875 38.203125 -16.921875 Z M 38.203125 -16.921875 "/></g></g></g><g fill="#ffffff" fill-opacity="1"><g transform="translate(741.087843, 919.268637)"><g><path d="M 28.171875 -56.21875 C 30.585938 -59.925781 33.609375 -62.847656 37.234375 -64.984375 C 40.867188 -67.117188 44.898438 -68.1875 49.328125 -68.1875 L 49.328125 -46.3125 L 43.640625 -46.3125 C 38.484375 -46.3125 34.613281 -45.203125 32.03125 -42.984375 C 29.457031 -40.765625 28.171875 -36.875 28.171875 -31.3125 L 28.171875 0 L 7.5 0 L 7.5 -67.46875 L 28.171875 -67.46875 Z M 28.171875 -56.21875 "/></g></g></g><g fill="#ffffff" fill-opacity="1"><g transform="translate(805.046303, 919.268637)"><g><path d="M 71.09375 -34.828125 C 71.09375 -32.890625 70.972656 -30.875 70.734375 -28.78125 L 23.9375 -28.78125 C 24.257812 -24.582031 25.609375 -21.375 27.984375 -19.15625 C 30.367188 -16.945312 33.289062 -15.84375 36.75 -15.84375 C 41.914062 -15.84375 45.503906 -18.019531 47.515625 -22.375 L 69.515625 -22.375 C 68.390625 -17.9375 66.351562 -13.941406 63.40625 -10.390625 C 60.46875 -6.847656 56.78125 -4.066406 52.34375 -2.046875 C 47.914062 -0.0351562 42.960938 0.96875 37.484375 0.96875 C 30.867188 0.96875 24.984375 -0.441406 19.828125 -3.265625 C 14.671875 -6.085938 10.640625 -10.117188 7.734375 -15.359375 C 4.835938 -20.597656 3.390625 -26.722656 3.390625 -33.734375 C 3.390625 -40.742188 4.816406 -46.867188 7.671875 -52.109375 C 10.535156 -57.347656 14.546875 -61.378906 19.703125 -64.203125 C 24.867188 -67.023438 30.796875 -68.4375 37.484375 -68.4375 C 44.015625 -68.4375 49.816406 -67.066406 54.890625 -64.328125 C 59.972656 -61.585938 63.941406 -57.675781 66.796875 -52.59375 C 69.660156 -47.519531 71.09375 -41.597656 71.09375 -34.828125 Z M 49.9375 -40.265625 C 49.9375 -43.804688 48.726562 -46.625 46.3125 -48.71875 C 43.894531 -50.820312 40.867188 -51.875 37.234375 -51.875 C 33.773438 -51.875 30.851562 -50.863281 28.46875 -48.84375 C 26.09375 -46.832031 24.625 -43.972656 24.0625 -40.265625 Z M 49.9375 -40.265625 "/></g></g></g><g fill="#0fa0f3" fill-opacity="1"><g transform="translate(893.464993, 919.268637)"><g><path d="M 59.484375 0 L 42.203125 -26 L 26.96875 0 L 3.5 0 L 30.703125 -43.15625 L 2.90625 -84.875 L 26.96875 -84.875 L 44.015625 -59.25 L 59 -84.875 L 82.453125 -84.875 L 55.5 -42.078125 L 83.546875 0 Z M 59.484375 0 "/></g></g></g></svg>